<svg width="23" height="23" viewBox="0 0 23 23" fill="none" xmlns="http://www.w3.org/2000/svg">
<g clip-path="url(#clip0_4506_89)">
<path d="M6.57587 0C2.95448 0 0 2.95448 0 6.57587V16.0751C0 19.6965 2.95448 22.651 6.57587 22.651H16.0751C19.6965 22.651 22.651 19.6965 22.651 16.0751V6.57587C22.651 2.95448 19.6965 0 16.0751 0H6.57587ZM6.57587 1.74159H16.0751C18.7566 1.74159 20.9094 3.89438 20.9094 6.57587V16.0751C20.9094 18.7566 18.7566 20.9094 16.0751 20.9094H6.57587C3.89784 20.9094 1.74159 18.7566 1.74159 16.0751V6.57587C1.74159 3.89784 3.89438 1.74159 6.57587 1.74159ZM17.8582 3.48317C17.1394 3.48317 16.552 4.07061 16.552 4.79282C16.552 5.51157 17.1394 6.09901 17.8582 6.09901C18.5804 6.09901 19.1678 5.51157 19.1678 4.79282C19.1678 4.07061 18.5804 3.48317 17.8582 3.48317ZM11.3272 5.22822C7.96845 5.22822 5.22822 7.96845 5.22822 11.3272C5.22822 14.686 7.96845 17.4228 11.3272 17.4228C14.686 17.4228 17.4228 14.686 17.4228 11.3272C17.4228 7.96845 14.686 5.22822 11.3272 5.22822ZM11.3272 6.9698C13.7426 6.9698 15.6812 8.90835 15.6812 11.3272C15.6812 13.7426 13.7426 15.6812 11.3272 15.6812C8.90835 15.6812 6.9698 13.7426 6.9698 11.3272C6.9698 8.90835 8.90835 6.9698 11.3272 6.9698Z" fill="black"/>
</g>
<defs>
<clipPath id="clip0_4506_89">
<rect width="23" height="23" fill="white"/>
</clipPath>
</defs>
</svg>
